<?xml version="1.0" encoding="utf-8"?>
<!-- Generator: Adobe Illustrator 22.1.0, SVG Export Plug-In . SVG Version: 6.00 Build 0)  -->
<svg version="1.1" id="katman_1" xmlns="http://www.w3.org/2000/svg" xmlns:xlink="http://www.w3.org/1999/xlink" x="0px" y="0px"
	 viewBox="0 0 471.9 123.2" style="enable-background:new 0 0 471.9 123.2;" xml:space="preserve">
<style type="text/css">
	.st0{font-family:'QuestaGrande-Regular';}
	.st1{font-size:64.7915px;}
	.st2{letter-spacing:-1;}
	.st3{letter-spacing:-4;}
	.st4{font-family:'AcuminPro-Medium';}
	.st5{font-size:18.6831px;}
	.st6{letter-spacing:2;}
</style>
<g id="a">
</g>
<g>
	<g>
		<text transform="matrix(1 0 0 1 111.2123 79.87)" class="st0 st1 st2">M</text>
		<text transform="matrix(1 0 0 1 166.1488 79.87)" class="st0 st1">ee</text>
		<text transform="matrix(1 0 0 1 229.7738 79.87)" class="st0 st1 st2">r</text>
		<text transform="matrix(1 0 0 1 258.4833 79.87)" class="st0 st1"> &amp;</text>
		<text transform="matrix(1 0 0 1 318.5985 79.87)" class="st0 st1 st2"> </text>
		<text transform="matrix(1 0 0 1 330.2621 79.87)" class="st0 st1 st3">W</text>
		<text transform="matrix(1 0 0 1 388.3124 79.87)" class="st0 st1">ald</text>
		<text transform="matrix(1 0 0 1 116.7831 112.1961)" class="st4 st5 st6">W</text>
		<text transform="matrix(1 0 0 1 137.0712 112.1961)" class="st4 st5 st6">E</text>
		<text transform="matrix(1 0 0 1 151.0995 112.1961)" class="st4 st5 st6">LL</text>
		<text transform="matrix(1 0 0 1 177.6366 112.1961)" class="st4 st5 st6">N</text>
		<text transform="matrix(1 0 0 1 194.4687 112.1961)" class="st4 st5 st6">E</text>
		<text transform="matrix(1 0 0 1 208.6254 112.1961)" class="st4 st5 st6">S</text>
		<text transform="matrix(1 0 0 1 222.9745 112.1961)" class="st4 st5 st6">S </text>
		<text transform="matrix(1 0 0 1 244.7074 112.1961)" class="st4 st5 st6">A</text>
		<text transform="matrix(1 0 0 1 259.8808 112.1961)" class="st4 st5 st6">P</text>
		<text transform="matrix(1 0 0 1 274.3798 112.1961)" class="st4 st5">P</text>
		<text transform="matrix(1 0 0 1 287.6591 112.1961)" class="st4 st5 st6">A</text>
		<text transform="matrix(1 0 0 1 302.8324 112.1961)" class="st4 st5 st6">R</text>
		<text transform="matrix(1 0 0 1 317.8881 112.1961)" class="st4 st5 st6">TE</text>
		<text transform="matrix(1 0 0 1 345.2597 112.1961)" class="st4 st5 st6">M</text>
		<text transform="matrix(1 0 0 1 364.4242 112.1961)" class="st4 st5 st6">E</text>
		<text transform="matrix(1 0 0 1 378.4638 112.1961)" class="st4 st5 st6">N</text>
		<text transform="matrix(1 0 0 1 395.349 112.1961)" class="st4 st5 st6">T</text>
		<text transform="matrix(1 0 0 1 408.8207 112.1961)" class="st4 st5 st6">S</text>
	</g>
	<g>
		<g>
			<path d="M73.6,68c-0.2,0-0.5-0.1-0.7-0.3l-3.1-3.1c-0.4-0.4-0.4-1,0-1.3c0.4-0.4,1-0.4,1.3,0l3.1,3.1c0.4,0.4,0.4,1,0,1.3
				C74.1,67.9,73.8,68,73.6,68z"/>
		</g>
		<g>
			<path d="M66.5,77.3c-0.2,0-0.5-0.1-0.7-0.3c-0.4-0.4-0.4-1,0-1.3l4-4c0.4-0.4,1-0.4,1.3,0c0.4,0.4,0.4,1,0,1.3l-4,4
				C67,77.3,66.7,77.3,66.5,77.3z"/>
		</g>
		<g>
			<path d="M74.4,83.7c-0.2,0-0.5-0.1-0.7-0.3l-3.9-3.9c-0.4-0.4-0.4-1,0-1.3c0.4-0.4,1-0.4,1.3,0l3.9,3.9c0.4,0.4,0.4,1,0,1.3
				C74.9,83.6,74.6,83.7,74.4,83.7z"/>
		</g>
		<g>
			<path d="M70.5,101.2c-0.5,0-1-0.4-1-1V64c0-0.5,0.4-1,1-1c0.5,0,1,0.4,1,1v36.3C71.4,100.8,71,101.2,70.5,101.2z"/>
		</g>
		<g>
			<path d="M61.5,57.9c-0.2,0-0.5-0.1-0.7-0.3l-3.5-3.5c-0.4-0.4-0.4-1,0-1.3c0.4-0.4,1-0.4,1.3,0l3.5,3.5c0.4,0.4,0.4,1,0,1.3
				C62,57.8,61.8,57.9,61.5,57.9z"/>
		</g>
		<g>
			<path d="M53.5,68.3c-0.2,0-0.5-0.1-0.7-0.3c-0.4-0.4-0.4-1,0-1.3l4.5-4.5c0.4-0.4,1-0.4,1.3,0c0.4,0.4,0.4,1,0,1.3l-4.5,4.5
				C54,68.2,53.8,68.3,53.5,68.3z"/>
		</g>
		<g>
			<path d="M62.4,75.5c-0.2,0-0.5-0.1-0.7-0.3l-4.4-4.4c-0.4-0.4-0.4-1,0-1.3c0.4-0.4,1-0.4,1.3,0l4.4,4.4c0.4,0.4,0.4,1,0,1.3
				C62.9,75.4,62.6,75.5,62.4,75.5z"/>
		</g>
		<g>
			<path d="M58,95.2c-0.5,0-1-0.4-1-1V53.4c0-0.5,0.4-1,1-1s1,0.4,1,1v40.8C59,94.7,58.5,95.2,58,95.2z"/>
		</g>
		<g>
			<g>
				<path d="M70.5,89c-4.3,0-7.8-3.5-7.8-7.8v-3.6l0.3-0.3c1.2-1.3,1.8-2.9,1.8-4.6V57.5l0.3-0.3c1.5-1.4,3.4-2.2,5.4-2.2
					c2.4,0,4.6,1.1,6.1,2.9l0.2,0.3l0,0.4c0,0.2,0,0.4,0,0.6l0,20.2c0,1.2,0.4,2.5,1,3.5l0.2,0.4l-0.1,0.4
					C76.8,86.9,73.8,89,70.5,89z M64.6,78.4v2.8c0,3.2,2.6,5.9,5.9,5.9c2.4,0,4.5-1.4,5.4-3.6c-0.7-1.3-1.1-2.7-1.1-4.1V58.8
					c-1.1-1.2-2.7-1.9-4.4-1.9c-1.4,0-2.8,0.5-3.8,1.4v14.5C66.6,74.8,65.9,76.8,64.6,78.4z M75.8,59.1L75.8,59.1L75.8,59.1z"/>
			</g>
			<g>
				<path d="M58,81.4c-4.8,0-8.6-3.9-8.6-8.6V52c0-4.8,3.9-8.6,8.6-8.6s8.6,3.9,8.6,8.6v5.8c0,0.5-0.4,1-1,1s-1-0.4-1-1V52
					c0-3.7-3-6.7-6.7-6.7s-6.7,3-6.7,6.7v20.7c0,3.7,3,6.7,6.7,6.7c1.9,0,3.6-0.8,4.9-2.2c0.4-0.4,1-0.4,1.3,0
					c0.4,0.4,0.4,1,0.1,1.3C62.7,80.4,60.4,81.4,58,81.4z"/>
			</g>
			<g>
				<path d="M83.3,87.8c-2.9,0-5.6-1.5-7.1-3.9c-0.3-0.4-0.2-1,0.3-1.3c0.4-0.3,1-0.2,1.3,0.3c1.2,1.9,3.3,3,5.5,3
					c3.6,0,6.5-2.9,6.5-6.5V59.1c0-3.6-2.9-6.5-6.5-6.5c-3.4,0-6.2,2.6-6.5,5.9c0,0.5-0.5,0.9-1,0.9c-0.5,0-0.9-0.5-0.9-1
					c0.4-4.4,4-7.7,8.4-7.7c4.6,0,8.4,3.8,8.4,8.4v20.2C91.7,84,87.9,87.8,83.3,87.8z"/>
			</g>
		</g>
		<g>
			<path d="M86.7,64.9c-0.2,0-0.5-0.1-0.7-0.3l-3.4-3.4c-0.4-0.4-0.4-1,0-1.3c0.4-0.4,1-0.4,1.3,0l3.4,3.4c0.4,0.4,0.4,1,0,1.3
				C87.2,64.8,86.9,64.9,86.7,64.9z"/>
		</g>
		<g>
			<path d="M78.9,75c-0.2,0-0.5-0.1-0.7-0.3c-0.4-0.4-0.4-1,0-1.3l4.4-4.4c0.4-0.4,1-0.4,1.3,0c0.4,0.4,0.4,1,0,1.3l-4.4,4.4
				C79.4,74.9,79.1,75,78.9,75z"/>
		</g>
		<g>
			<path d="M87.5,82c-0.2,0-0.5-0.1-0.7-0.3l-4.3-4.3c-0.4-0.4-0.4-1,0-1.3c0.4-0.4,1-0.4,1.3,0l4.3,4.3c0.4,0.4,0.4,1,0,1.3
				C88,81.9,87.8,82,87.5,82z"/>
		</g>
		<g>
			<path d="M83.3,99c-0.5,0-1-0.4-1-1V60.5c0-0.5,0.4-1,1-1s1,0.4,1,1v37.6C84.2,98.6,83.8,99,83.3,99z"/>
		</g>
		<g>
			<path d="M93.8,40.8H42.3c-0.5,0-1-0.4-1-1c0-0.5,0.4-1,1-1h51.5c0.5,0,1,0.4,1,1C94.8,40.4,94.4,40.8,93.8,40.8z"/>
		</g>
		<g>
			<g>
				<path d="M39.2,28.1h-0.8l-0.3-0.5c-1.2-2.1-2.7-4-4.5-5.7l-0.7-0.7l19.9-21l0.5,0.1c7,0.8,13.6,3.1,19.6,6.9L74.3,8L39.2,28.1z
					 M35.6,21.3c1.4,1.4,2.6,3,3.6,4.6L70.5,8c-5.2-3-10.9-4.9-17-5.7L35.6,21.3z"/>
			</g>
			<g>
				<path d="M34.3,22.6L33.6,22c-2.4-2.2-5.1-4-8.1-5.1l-0.9-0.3l5-12.9L30,3.4C35.6,1.2,41.6,0,47.7,0c1.8,0,3.7,0.1,5.6,0.3
					l1.9,0.2L34.3,22.6z M27.1,15.4c2.6,1.1,5,2.6,7.2,4.5L51.2,2c-1.2-0.1-2.3-0.1-3.5-0.1C42,1.9,36.4,3,31.1,5L27.1,15.4z"/>
			</g>
			<g>
				<path d="M26.4,17.2l-0.9-0.3c-2.8-1.1-5.8-1.6-8.8-1.6c-0.5,0-1,0-1.7,0.1l-2.6,0.2l1.8-1.8C18.8,9.2,24.1,5.8,30,3.4l2-0.8
					L26.4,17.2z M17.5,13.3c2.7,0.1,5.3,0.6,7.9,1.4l3.3-8.7C24.6,7.9,20.8,10.4,17.5,13.3z"/>
			</g>
			<g>
				<path d="M40.9,34.8l-0.2-0.9c-0.5-2.2-1.4-4.3-2.5-6.3l-0.5-0.8L72.4,6.9l0.5,0.3c5.9,3.7,11,8.7,14.8,14.6l0.7,1.1L40.9,34.8z
					 M40.2,27.5c0.8,1.6,1.5,3.3,2,5l43.2-10.8c-3.5-5-7.9-9.3-13-12.6L40.2,27.5z"/>
			</g>
			<g>
				<path d="M75.4,102.4c-4.9,0-7.4-1.9-9.8-3.8c-2.2-1.7-4.4-3.4-8.6-3.4c-4.3,0-6.4,1.6-8.6,3.4c-2.4,1.9-4.9,3.8-9.8,3.8
					c-4.9,0-7.4-1.9-9.8-3.8c-2.2-1.7-4.4-3.4-8.6-3.4s-6.4,1.6-8.6,3.4c-2.4,1.9-4.9,3.8-9.8,3.8c-0.2,0-0.4,0-0.6,0l-0.9,0l0-0.9
					V58.2l1.5,1.2c4.4,3.4,9.6,5.2,15.2,5.2c13.6,0,24.7-11.1,24.7-24.7c0-2-0.2-4-0.7-6L40.4,33L86,21.6v-2.5l1.7,2.7
					c5,7.7,7.7,16.7,7.7,25.9v47.5l-1-0.1c-0.2,0-0.4,0-0.6,0c-4.3,0-6.4,1.6-8.6,3.4C82.8,100.4,80.3,102.4,75.4,102.4z M56.9,93.3
					c4.9,0,7.4,1.9,9.8,3.8c2.2,1.7,4.4,3.4,8.6,3.4c4.3,0,6.4-1.6,8.6-3.4c2.3-1.8,4.8-3.7,9.5-3.8V47.7c0-8.6-2.4-17-7-24.3
					l-43.9,11c0.4,1.8,0.6,3.7,0.6,5.5c0,14.7-11.9,26.6-26.6,26.6c-5.3,0-10.4-1.5-14.8-4.5v38.5c4.1-0.1,6.1-1.7,8.3-3.4
					c2.4-1.9,4.9-3.8,9.8-3.8s7.4,1.9,9.8,3.8c2.2,1.7,4.4,3.4,8.6,3.4s6.4-1.6,8.6-3.4C49.5,95.2,52,93.3,56.9,93.3z"/>
			</g>
			<g>
				<path d="M75.4,118.7c-4.9,0-7.4-1.9-9.8-3.8c-2.2-1.7-4.4-3.4-8.6-3.4c-4.3,0-6.4,1.6-8.6,3.4c-2.4,1.9-4.9,3.8-9.8,3.8
					c-4.9,0-7.4-1.9-9.8-3.8c-2.2-1.7-4.4-3.4-8.6-3.4s-6.4,1.6-8.6,3.4c-2.4,1.9-4.9,3.8-9.8,3.8c-0.2,0-0.4,0-0.7,0l-0.9,0v-10.1
					l1,0c0.2,0,0.4,0,0.6,0c4.3,0,6.4-1.6,8.6-3.4c2.4-1.9,4.9-3.8,9.8-3.8s7.4,1.9,9.8,3.8c2.2,1.7,4.4,3.4,8.6,3.4
					s6.4-1.6,8.6-3.4c2.4-1.9,4.9-3.8,9.8-3.8c4.9,0,7.4,1.9,9.8,3.8c2.2,1.7,4.4,3.4,8.6,3.4c4.3,0,6.4-1.6,8.6-3.4
					c2.4-1.9,4.9-3.8,9.8-3.8c0.2,0,0.3,0,0.5,0l1.1,0v10.1l-1-0.1c-0.2,0-0.4,0-0.6,0c-4.3,0-6.4,1.6-8.6,3.4
					C82.8,116.8,80.3,118.7,75.4,118.7z M56.9,109.7c4.9,0,7.4,1.9,9.8,3.8c2.2,1.7,4.4,3.4,8.6,3.4c4.3,0,6.4-1.6,8.6-3.4
					c2.3-1.8,4.8-3.7,9.5-3.8v-6.3c-4.1,0.1-6.1,1.7-8.3,3.4c-2.4,1.9-4.9,3.8-9.8,3.8c-4.9,0-7.4-1.9-9.8-3.8
					c-2.2-1.7-4.4-3.4-8.6-3.4c-4.3,0-6.4,1.6-8.6,3.4c-2.4,1.9-4.9,3.8-9.8,3.8c-4.9,0-7.4-1.9-9.8-3.8c-2.2-1.7-4.4-3.4-8.6-3.4
					s-6.4,1.6-8.6,3.4c-2.3,1.8-4.8,3.7-9.5,3.8v6.3c4.1-0.1,6.1-1.7,8.3-3.4c2.4-1.9,4.9-3.8,9.8-3.8s7.4,1.9,9.8,3.8
					c2.2,1.7,4.4,3.4,8.6,3.4s6.4-1.6,8.6-3.4C49.5,111.6,52,109.7,56.9,109.7z"/>
			</g>
			<g>
				<path d="M95.4,123.2H0v-6.4l1,0c0.2,0,0.4,0,0.6,0c4.3,0,6.4-1.6,8.6-3.4c2.4-1.9,4.9-3.8,9.8-3.8s7.4,1.9,9.8,3.8
					c2.2,1.7,4.4,3.4,8.6,3.4s6.4-1.6,8.6-3.4c2.4-1.9,4.9-3.8,9.8-3.8c4.9,0,7.4,1.9,9.8,3.8c2.2,1.7,4.4,3.4,8.6,3.4
					c4.3,0,6.4-1.6,8.6-3.4c2.4-1.9,4.9-3.8,9.8-3.8c0.2,0,0.3,0,0.5,0l1.1,0V123.2z M1.9,121.3h91.6v-9.7c-4.1,0.1-6.1,1.7-8.3,3.4
					c-2.4,1.9-4.9,3.8-9.8,3.8h0c-4.9,0-7.4-1.9-9.8-3.8c-2.2-1.7-4.4-3.4-8.6-3.4c-4.3,0-6.4,1.6-8.6,3.4c-2.4,1.9-4.9,3.8-9.8,3.8
					c-4.9,0-7.4-1.9-9.8-3.8c-2.2-1.7-4.4-3.4-8.6-3.4s-6.4,1.6-8.6,3.4c-2.3,1.8-4.8,3.7-9.5,3.8V121.3z"/>
			</g>
			<g>
				<path d="M75.4,110.5c-4.9,0-7.4-1.9-9.8-3.8c-2.2-1.7-4.4-3.4-8.6-3.4c-4.3,0-6.4,1.6-8.6,3.4c-2.4,1.9-4.9,3.8-9.8,3.8
					c-4.9,0-7.4-1.9-9.8-3.8c-2.2-1.7-4.4-3.4-8.6-3.4s-6.4,1.6-8.6,3.4c-2.4,1.9-4.9,3.8-9.8,3.8c-0.2,0-0.4,0-0.7,0l-0.9,0v-10.1
					l1,0c0.2,0,0.4,0,0.6,0c4.3,0,6.4-1.6,8.6-3.4c2.4-1.9,4.9-3.8,9.8-3.8s7.4,1.9,9.8,3.8c2.2,1.7,4.4,3.4,8.6,3.4
					s6.4-1.6,8.6-3.4c2.4-1.9,4.9-3.8,9.8-3.8c4.9,0,7.4,1.9,9.8,3.8c2.2,1.7,4.4,3.4,8.6,3.4c4.3,0,6.4-1.6,8.6-3.4
					c2.4-1.9,4.9-3.8,9.8-3.8c0.2,0,0.3,0,0.5,0l1.1,0v10.1l-1-0.1c-0.2,0-0.4,0-0.6,0c-4.3,0-6.4,1.6-8.6,3.4
					C82.8,108.6,80.3,110.5,75.4,110.5z M56.9,101.5c4.9,0,7.4,1.9,9.8,3.8c2.2,1.7,4.4,3.4,8.6,3.4c4.3,0,6.4-1.6,8.6-3.4
					c2.3-1.8,4.8-3.7,9.5-3.8v-6.3c-4.1,0.1-6.1,1.7-8.3,3.4c-2.4,1.9-4.9,3.8-9.8,3.8c-4.9,0-7.4-1.9-9.8-3.8
					c-2.2-1.7-4.4-3.4-8.6-3.4c-4.3,0-6.4,1.6-8.6,3.4c-2.4,1.9-4.9,3.8-9.8,3.8c-4.9,0-7.4-1.9-9.8-3.8c-2.2-1.7-4.4-3.4-8.6-3.4
					s-6.4,1.6-8.6,3.4c-2.3,1.8-4.8,3.7-9.5,3.8v6.3c4.1-0.1,6.1-1.7,8.3-3.4c2.4-1.9,4.9-3.8,9.8-3.8s7.4,1.9,9.8,3.8
					c2.2,1.7,4.4,3.4,8.6,3.4s6.4-1.6,8.6-3.4C49.5,103.4,52,101.5,56.9,101.5z"/>
			</g>
			<g>
				<path d="M34.3,22.2c-0.2,0-0.5-0.1-0.7-0.3c-2.4-2.2-5.1-4-8.1-5.1c-0.5-0.2-0.7-0.7-0.5-1.2c0.2-0.5,0.7-0.7,1.2-0.5
					c3.3,1.2,6.2,3.1,8.7,5.5c0.4,0.4,0.4,1,0,1.3C34.8,22.1,34.5,22.2,34.3,22.2z"/>
			</g>
			<g>
				<path d="M16.7,66.5c-6,0-11.6-1.9-16.3-5.6L0,60.6V47.7c0-12.9,5.1-25,14.3-34.1l0.3-0.2l0.4,0c0.7,0,1.2-0.1,1.8-0.1
					c3.3,0,6.5,0.6,9.5,1.8c0.5,0.2,0.7,0.7,0.5,1.2c-0.2,0.5-0.7,0.7-1.2,0.5c-2.8-1.1-5.8-1.6-8.8-1.6c-0.4,0-0.8,0-1.3,0
					C6.7,23.9,1.9,35.4,1.9,47.7v11.9c4.3,3.2,9.4,4.9,14.8,4.9c13.6,0,24.7-11.1,24.7-24.7c0-2-0.2-4-0.7-6c-0.1-0.5,0.2-1,0.7-1.2
					c0.5-0.1,1,0.2,1.2,0.7c0.5,2.1,0.8,4.3,0.8,6.5C43.3,54.6,31.3,66.5,16.7,66.5z"/>
			</g>
			<g>
				<path d="M38.9,28.1c-0.3,0-0.6-0.2-0.8-0.5c-1.2-2.1-2.7-4-4.5-5.7c-0.4-0.4-0.4-1,0-1.3c0.4-0.4,1-0.4,1.3,0
					c1.9,1.8,3.5,3.9,4.8,6.1c0.3,0.5,0.1,1-0.4,1.3C39.3,28.1,39.1,28.1,38.9,28.1z"/>
			</g>
			<g>
				<path d="M41.6,34.6c-0.4,0-0.8-0.3-0.9-0.7c-0.5-2.2-1.4-4.3-2.5-6.3c-0.3-0.5-0.1-1,0.4-1.3c0.5-0.3,1-0.1,1.3,0.4
					c1.2,2.1,2.1,4.4,2.7,6.7c0.1,0.5-0.2,1-0.7,1.2C41.7,34.6,41.6,34.6,41.6,34.6z"/>
			</g>
		</g>
	</g>
</g>
</svg>
